# xmcd
#
# Track frame offsets:
#	150
#	26477
#	36919
#	59665
#	72916
#	87607
#	103596
#	118463
#	141395
#	153004
#
# Disc length: 2286 seconds
#
# Revision: 0
# Processed by: cddbd v1.5.2PL0 Copyright (c) Steve Scherf et al.
# Submitted via: EasyCDDAExtractor 11.9.9.666
#
DISCID=9208ec0a
DTITLE=Big Bob Young - Hard Way to Make a Dollar
DYEAR=2007
DGENRE=Country
TTITLE0=Ship of Fools
TTITLE1=Best of a Bad Situation
TTITLE2=Somewhere Tonight
TTITLE3=Hard Way to Make a Dollar
TTITLE4=Bury Me in Dixie
TTITLE5=Mississippi Nights
TTITLE6=Green County Stomp
TTITLE7=I Call it Love
TTITLE8=Can I Take You Home
TTITLE9=Stand Up
EXTD=
EXTT0=
EXTT1=
EXTT2=
EXTT3=
EXTT4=
EXTT5=
EXTT6=
EXTT7=
EXTT8=
EXTT9=
PLAYORDER=
